<mxfile host="app.diagrams.net" agent="Mozilla/5.0 (Windows NT 10.0; Win64; x64) AppleWebKit/537.36 (KHTML, like Gecko) Chrome/134.0.0.0 Safari/537.36" version="26.1.1">
  <diagram name="Страница — 1" id="2WxskBHPB3Cj3flR2TIk">
    <mxGraphModel dx="1877" dy="589" grid="1" gridSize="10" guides="1" tooltips="1" connect="1" arrows="1" fold="1" page="1" pageScale="1" pageWidth="827" pageHeight="1169" math="0" shadow="0">
      <root>
        <mxCell id="0" />
        <mxCell id="1" parent="0" />
        <mxCell id="HBx5FrD1iVPAL-3G6syV-33" style="edgeStyle=orthogonalEdgeStyle;rounded=0;orthogonalLoop=1;jettySize=auto;html=1;entryX=0.5;entryY=1;entryDx=0;entryDy=0;" edge="1" parent="1" source="HBx5FrD1iVPAL-3G6syV-3" target="HBx5FrD1iVPAL-3G6syV-30">
          <mxGeometry relative="1" as="geometry" />
        </mxCell>
        <mxCell id="HBx5FrD1iVPAL-3G6syV-3" value="Доставлен" style="rounded=1;whiteSpace=wrap;html=1;" vertex="1" parent="1">
          <mxGeometry x="180" y="290" width="120" height="60" as="geometry" />
        </mxCell>
        <mxCell id="HBx5FrD1iVPAL-3G6syV-16" style="edgeStyle=orthogonalEdgeStyle;rounded=0;orthogonalLoop=1;jettySize=auto;html=1;entryX=0;entryY=0.5;entryDx=0;entryDy=0;" edge="1" parent="1" source="HBx5FrD1iVPAL-3G6syV-9" target="HBx5FrD1iVPAL-3G6syV-3">
          <mxGeometry relative="1" as="geometry">
            <Array as="points">
              <mxPoint x="180" y="320" />
            </Array>
          </mxGeometry>
        </mxCell>
        <mxCell id="HBx5FrD1iVPAL-3G6syV-9" value="Обработан" style="rounded=1;whiteSpace=wrap;html=1;" vertex="1" parent="1">
          <mxGeometry x="-10" y="140" width="120" height="60" as="geometry" />
        </mxCell>
        <mxCell id="HBx5FrD1iVPAL-3G6syV-18" value="Оплата получена" style="text;html=1;align=center;verticalAlign=middle;whiteSpace=wrap;rounded=0;" vertex="1" parent="1">
          <mxGeometry x="110" y="10" width="120" height="30" as="geometry" />
        </mxCell>
        <mxCell id="HBx5FrD1iVPAL-3G6syV-19" value="Товар отправлен" style="text;html=1;align=center;verticalAlign=middle;whiteSpace=wrap;rounded=0;rotation=0;" vertex="1" parent="1">
          <mxGeometry x="60" y="290" width="100" height="30" as="geometry" />
        </mxCell>
        <mxCell id="HBx5FrD1iVPAL-3G6syV-20" value="Заказ завершён" style="text;html=1;align=center;verticalAlign=middle;whiteSpace=wrap;rounded=0;" vertex="1" parent="1">
          <mxGeometry x="350" y="290" width="110" height="30" as="geometry" />
        </mxCell>
        <mxCell id="HBx5FrD1iVPAL-3G6syV-32" style="edgeStyle=orthogonalEdgeStyle;rounded=0;orthogonalLoop=1;jettySize=auto;html=1;entryX=0.5;entryY=0;entryDx=0;entryDy=0;" edge="1" parent="1" source="HBx5FrD1iVPAL-3G6syV-21" target="HBx5FrD1iVPAL-3G6syV-9">
          <mxGeometry relative="1" as="geometry" />
        </mxCell>
        <mxCell id="HBx5FrD1iVPAL-3G6syV-21" value="&lt;div&gt;&lt;br&gt;&lt;/div&gt;&lt;div&gt;&lt;br&gt;&lt;/div&gt;" style="ellipse;whiteSpace=wrap;html=1;aspect=fixed;fillColor=#000000;strokeColor=#000000;fontColor=#333333;gradientColor=none;" vertex="1" parent="1">
          <mxGeometry x="310" y="10" width="70" height="70" as="geometry" />
        </mxCell>
        <mxCell id="HBx5FrD1iVPAL-3G6syV-30" value="" style="ellipse;html=1;shape=endState;fillColor=#000000;strokeColor=#000000;" vertex="1" parent="1">
          <mxGeometry x="470" y="160" width="70" height="75" as="geometry" />
        </mxCell>
        <mxCell id="HBx5FrD1iVPAL-3G6syV-34" value="Создан" style="text;html=1;align=center;verticalAlign=middle;whiteSpace=wrap;rounded=0;" vertex="1" parent="1">
          <mxGeometry x="380" y="20" width="60" height="30" as="geometry" />
        </mxCell>
        <mxCell id="HBx5FrD1iVPAL-3G6syV-35" value="Закончен" style="text;html=1;align=center;verticalAlign=middle;whiteSpace=wrap;rounded=0;" vertex="1" parent="1">
          <mxGeometry x="475" y="130" width="60" height="30" as="geometry" />
        </mxCell>
      </root>
    </mxGraphModel>
  </diagram>
</mxfile>
